<?xml version="1.0" encoding="UTF-8"?>
<!DOCTYPE svg PUBLIC "-//W3C//DTD SVG 1.1//EN" "http://www.w3.org/Graphics/SVG/1.1/DTD/svg11.dtd">
<!-- Creator: CorelDRAW X5 -->
<svg xmlns="http://www.w3.org/2000/svg" xml:space="preserve" width="320mm" height="153mm" style="shape-rendering:geometricPrecision; text-rendering:geometricPrecision; image-rendering:optimizeQuality; fill-rule:evenodd; clip-rule:evenodd"
viewBox="0 0 320 153"
 xmlns:xlink="http://www.w3.org/1999/xlink">
 <defs>
  <style type="text/css">
   <![CDATA[
    .str1 {stroke:#E62129;stroke-width:0.2}
    .str0 {stroke:#FEFEFE;stroke-width:0.2}
    .str2 {stroke:#2D3453;stroke-width:0.2}
    .fil0 {fill:#332C2B}
    .fil1 {fill:#E62129}
    .fil2 {fill:#2D3453}
   ]]>
  </style>
 </defs>
 <g id="图层_x0020_1">
  <metadata id="CorelCorpID_0Corel-Layer"/>
  <polygon class="fil0" points="65.39,129.248 77.0547,144.796 77.0547,152.164 84.0174,152.164 84.0174,144.706 95.637,129.157 88.1317,129.157 80.5813,139.598 72.8953,129.338 "/>
  <polygon class="fil0" points="153.104,152.198 153.104,152.142 153.104,152.142 176.252,152.142 176.252,146.673 158.891,146.673 158.891,143.509 174.534,143.509 174.534,137.632 158.981,137.632 158.981,135.146 176.162,135.146 176.162,129.315 153.104,129.315 "/>
  <path class="fil0" d="M188.159 129.238l-10.8059 22.8041 6.3523 0 1.5487 -3.2997 14.5807 0 1.6278 3.3219 6.5558 0 -11.3482 -22.8263 -8.5112 0zm9.1092 13.8423l-4.6342 -9.2435 -4.7699 9.2435 7.7456 0 1.6585 0z"/>
  <path class="fil0 str0" d="M121.094 142.544c0,5.8728 -4.9016,10.6419 -10.9257,10.6419l-2.8064 -0.0086c-6.0236,0 -10.9071,-4.7605 -10.9071,-10.6333l0.0212 -13.1167 5.7194 0 0 11.5484c-0.0479,3.3855 2.7675,6.1705 6.2881,6.2201 3.5207,0.0496 6.4138,-2.4415 6.4617,-5.8271l0 -11.9327 6.1488 0 0 13.108z"/>
  <path class="fil0 str0" d="M139.613 135.11c2.4408,0.6187 4.2496,2.8681 4.2496,5.5486 0,2.6805 -1.8088,4.9301 -4.2496,5.5489 -0.4345,0.1101 -0.8889,0.1689 -1.3568,0.1689l-7.9121 0 0 -11.4353 7.9121 0c0.4679,0 0.9223,0.0588 1.3568,0.1689zm0 17.0978l-14.8299 -0.0004 0 -22.8711 14.8299 0c5.7298,0 10.3746,5.1199 10.3746,11.4357 0,6.3158 -4.6448,11.4358 -10.3746,11.4358z"/>
  <polygon class="fil0" points="208.978,152.098 214.472,152.098 214.472,135.125 225.368,152.245 233.8,152.245 233.8,129.464 227.787,129.464 227.911,145.635 217.512,129.327 208.989,129.327 "/>
  <path class="fil1 str1" d="M319.919 11.2758l-44.994 10.217 -65.8022 22.1605 -52.1578 20.899 -17.0128 7.7146c-37.3519,16.9379 -79.2836,42.8964 -79.2836,42.8964l-60.7496 1.3948c15.1269,-11.1665 35.2335,-22.1756 58.4002,-32.6471 76.7634,-34.6969 187.377,-63.5576 261.6,-72.6352z"/>
  <path class="fil2 str2" d="M140.381 72.952l-31.6287 41.8769 -48.0835 0.3344c-0.4794,-1.3561 57.1539,-32.6717 79.7122,-42.2113z"/>
  <polygon class="fil2 str2" points="55.9315,6.6478 94.4293,60.6426 164.551,38.426 190.766,2.4145 146.638,3.9741 121.454,38.9553 97.8304,5.5342 "/>
  <path class="fil2 str2" d="M178.676 34.0533l93.5293 -17.7425c0,0 -1.6598,-5.1389 -5.8886,-9.6246 -4.5745,-4.8524 -10.2602,-6.4332 -10.5274,-6.5001l-53.9349 1.5601 -23.1784 32.3071z"/>
  <path class="fil2 str2" d="M243.692 32.891c0,0 27.7658,-9.5063 31.3516,-10.5711 1.3848,2.8501 1.2407,7.7249 1.1147,10.3343 -0.933,19.2836 -8.7951,33.6847 -23.0196,47.8445 -6.8104,5.1445 -25.4782,27.4448 -87.5958,33.4807l-44.5732 0.223 36.2403 -48.8498 51.9044 -21.0293 -24.2836 32.5285c8.5327,1.8953 16.9377,-1.5321 23.1728,-3.7997 20.6914,-7.5252 33.1016,-28.0618 33.1016,-28.0618 3.446,-6.3214 2.5868,-12.0993 2.5868,-12.0993z"/>
 </g>
</svg>
